<svg width="30" height="40" viewBox="0 0 30 40" fill="none" xmlns="http://www.w3.org/2000/svg">
<path fill-rule="evenodd" clip-rule="evenodd" d="M0 5.75757H6.58537V2.12121C6.92201 0.88631 7.52984 0.477528 9.05488 -4.62388e-06H20.3049C22.2833 0.236518 22.9219 0.699775 23.3232 2.12121V6.66666H29.6341C30.4573 6.66666 29.6341 14.2424 29.6341 14.2424C28.0465 19.5531 26.3813 20.0658 23.3232 22.4242L20.3049 24.2424C18.9382 25.0595 18.2975 24.8138 17.561 26.6667V32.4242L20.3049 33.0303C22.2308 33.852 22.6534 34.6305 23.3232 36.0606V40H6.58537V36.0606C7.63201 33.92 9.07739 33.284 12.0732 32.4242V26.6667C11.4123 24.7782 10.8807 25.1094 9.87805 24.2424L7.13415 23.3333C3.5677 20.7492 1.94886 18.8231 0 14.2424V5.75757ZM22.5 19.0909C24.666 17.8397 25.7078 16.9346 27.1646 14.8485V9.99999H23.3232L22.5 19.0909ZM2.7439 14.2424V10.9091H7.13415L7.95732 19.0909H6.58537C4.37752 17.5317 3.64589 16.4183 2.7439 14.2424Z" fill="#E8C2FF"/>
</svg>
